<svg class="svg-icon" style="width: 1em; height: 1em;vertical-align: middle;fill: currentColor;overflow: hidden;" viewBox="0 0 1024 1024" version="1.1" xmlns="http://www.w3.org/2000/svg"><path d="M927.2352 594.88c-32.192-19.2-64.384-19.2-96.576-12.8-25.728 6.4-45.056 19.2-57.92 31.936L682.4992 562.944c6.4-12.8 6.4-31.936 6.4-51.072 0-19.2-6.4-31.936-6.4-51.072l90.176-51.072c25.728 25.6 57.92 38.336 90.112 38.336 19.328 0 45.056-6.4 64.384-19.2 64.384-38.272 83.712-114.88 45.056-172.352-19.328-31.936-45.056-51.072-77.248-57.472-32.192-6.4-70.848-6.4-96.576 12.8-32.192 19.136-51.52 44.672-57.92 76.608-6.4 19.136-6.4 44.672 0 63.808l-90.176 51.072c-25.728-19.136-57.92-38.272-90.112-44.672V250.112a123.264 123.264 0 0 0 96.576-121.28A128.64 128.64 0 0 0 528.0672 1.152a128.64 128.64 0 0 0-128.768 127.68c0 57.472 38.656 108.544 96.576 121.28v102.144c-32.192 12.8-64.384 31.936-90.112 51.072l-90.176-51.072c6.4-19.136 6.4-44.672 0-63.808-6.4-31.936-25.728-63.872-57.92-76.608-32.192-19.2-64.384-25.6-96.576-12.8-32.192 6.4-64.384 25.6-77.248 57.472-12.864 31.936-25.792 63.872-12.864 95.744 6.4 31.936 25.728 63.872 57.92 76.608 19.328 12.8 45.056 19.2 64.384 19.2 32.192 0 64.384-12.8 90.112-38.336l90.176 51.072c0 19.2-6.4 31.936-6.4 51.072 0 19.2 6.4 31.936 6.4 51.072l-90.176 51.072c-12.8-19.2-38.592-25.536-57.92-31.936-32.192-12.8-64.384-6.4-96.576 12.8-32.192 12.8-51.52 44.672-57.92 76.608-12.928 31.936-6.4 63.808 12.8 95.744 19.392 31.936 45.12 51.072 77.312 57.472 12.864 6.4 19.328 6.4 32.192 6.4 19.328 0 45.056-6.4 64.384-19.2 32.192-19.136 51.52-44.672 57.92-76.608 6.4-19.136 6.4-44.672 0-63.808l90.176-51.072c25.728 19.136 57.92 38.272 90.112 44.672v102.144c-57.92 19.2-96.576 70.208-96.576 127.68a128.64 128.64 0 0 0 128.768 127.68 128.64 128.64 0 0 0 128.768-127.68c0-57.472-38.656-108.544-96.576-121.28v-102.144c32.192-6.4 64.384-25.6 90.112-51.072l90.176 51.072c-6.4 19.2-6.4 44.672 0 63.808 6.4 32 32.192 57.472 57.92 76.608 19.328 12.8 45.056 19.2 64.384 19.2 12.864 0 19.328 0 32.192-6.4 32.192-6.4 57.92-31.936 77.248-57.472 38.656-63.808 19.328-140.416-45.056-172.352z m-128.768-293.696c6.4-19.136 12.864-31.872 32.192-38.272 12.864-6.4 19.328-6.4 32.192-6.4h19.328c19.328 6.4 32.192 12.8 38.592 31.936 19.328 31.936 6.464 70.208-25.728 89.344-32.192 19.2-70.848 6.4-90.112-25.536-6.4-12.8-6.4-31.872-6.4-51.072z m-547.2 51.072c-19.328 31.936-57.984 38.336-90.176 25.6-12.864-12.8-25.728-25.6-32.192-38.4 0-19.072 0-38.272 6.4-51.008 12.928-12.8 25.792-25.6 38.656-31.936 19.328 0 38.656 0 51.52 6.4 12.864 6.4 25.728 19.2 32.192 38.272 0 19.2 0 38.336-6.4 51.072z m6.4 370.304c-6.4 19.2-12.864 31.936-32.192 38.272-12.864 6.4-32.192 6.4-51.52 6.4-19.328-6.4-32.192-12.8-38.592-31.936-6.464-12.8-12.928-31.872-6.464-51.072 6.4-19.136 12.864-31.872 32.192-38.272 12.864-6.4 19.328-6.4 32.192-6.4h19.328c19.328 6.4 32.192 12.8 38.592 31.936 6.464 12.8 6.464 31.936 6.464 51.072z m206.016-593.728c0-38.272 25.728-63.808 64.384-63.808s64.384 25.536 64.384 63.808c0 38.336-25.728 63.872-64.384 63.872s-64.384-25.6-64.384-63.872z m128.768 766.08c0 38.336-25.728 63.872-64.384 63.872s-64.384-25.6-64.384-63.872 25.728-63.808 64.384-63.808 64.384 25.536 64.384 63.808zM528.0672 607.616c-51.52 0-96.576-44.672-96.576-95.744s45.056-95.744 96.576-95.744c51.52 0 96.576 44.672 96.576 95.744s-45.056 95.744-96.576 95.744z m392.704 127.68c-6.4 12.8-19.264 25.6-38.592 32-19.328 6.336-32.192 0-51.52-6.4-12.864-6.4-25.728-19.2-32.192-38.4-6.4-19.072 0-31.872 6.4-51.008 12.928-19.2 32.256-31.936 57.984-31.936 12.864 0 19.328 0 32.192 6.4 32.192 19.2 38.656 57.472 25.728 89.344z" fill="#000000" /></svg>